<?xml version="1.0" encoding="UTF-8"?>
<svg id="uuid-643d8797-5017-4924-a7b3-126f3d454c49" data-name="icon" xmlns="http://www.w3.org/2000/svg" width="75" height="75" viewBox="0 0 75 75">
  <path d="M74.18,37.2c0-.32,0-.63-.01-1.03-.02-.39-.05-.87-.08-1.5-.04-.63-.11-1.1-.15-1.49s-.09-.71-.14-1.02c-.11-.62-.2-1.25-.46-2.49-.12-.62-.27-1.07-.4-1.45-.14-.37-.25-.67-.39-.95-.14-.29-.28-.57-.43-.94-.08-.18-.15-.38-.24-.61s-.19-.48-.3-.78c-.11-.29-.21-.55-.3-.78-.1-.22-.2-.42-.29-.59-.18-.35-.34-.62-.51-.89-.16-.27-.35-.53-.54-.86-.2-.33-.41-.75-.71-1.29-.58-1.1-.76-1.71-.94-2.33-.17-.63-.39-1.24-1.1-2.29-.76-1.01-1.21-1.46-1.69-1.88-.24-.21-.47-.42-.75-.7-.29-.27-.62-.6-1.05-1.05-1.75-1.77-1.68-1.86-3.6-3.46-.97-.79-1.54-1.08-2.08-1.4-.27-.16-.55-.3-.89-.49s-.73-.44-1.27-.75-.96-.53-1.31-.69c-.36-.15-.66-.25-.96-.35-.59-.21-1.19-.38-2.32-.89-1.14-.45-1.64-.89-2.16-1.3-.26-.21-.52-.41-.87-.62-.35-.19-.79-.37-1.4-.55-.61-.17-1.08-.25-1.46-.33-.39-.08-.7-.12-1.01-.15-.63-.07-1.25-.16-2.5-.31-.61-.08-1.09-.09-1.48-.09s-.71,0-1.02.03-.63.06-1.02.07c-.39,0-.86.03-1.48.04-2.49.07-2.48.24-4.94.55-1.23.17-1.86.15-2.52.1-.33-.03-.65-.03-1.05,0-.4.04-.87.09-1.48.28-.6.19-1.06.32-1.43.45-.37.14-.67.25-.96.35-.6.21-1.18.46-2.34.96-1.14.54-1.72.81-2.27,1.12-.28.15-.56.3-.91.49-.34.2-.74.45-1.29.78-.54.33-.92.61-1.25.82-.33.22-.59.39-.84.58-.5.38-1.03.73-1.99,1.55-.24.2-.45.39-.62.57s-.31.35-.42.52c-.24.32-.4.61-.56.9-.16.28-.3.59-.52.91-.21.34-.52.68-.92,1.15-.41.46-.74.79-1.03,1.05-.28.27-.52.48-.76.68-.24.21-.49.41-.75.7s-.56.65-.93,1.17c-.69,1.05-.98,1.61-1.23,2.19-.13.29-.26.57-.43.92s-.36.78-.65,1.33-.46.99-.63,1.34c-.15.36-.29.64-.39.93-.11.29-.22.58-.36.95-.15.36-.3.8-.49,1.39-.75,2.37-.94,2.32-1.45,4.77-.24,1.23-.25,1.86-.3,2.48-.03.31-.03.62-.05,1.01,0,.39-.06.85-.08,1.47s-.06,1.09-.09,1.47c-.02.39-.04.7-.07,1.01-.06.62-.08,1.25,0,2.5.06.62.11,1.09.14,1.48.04.39.08.7.11,1.01.04.31.06.63.13,1.01.07.39.16.85.28,1.46.3,1.22.41,1.84.57,2.45.07.31.15.61.25.99.11.38.27.82.48,1.42s.43,1.02.59,1.38c.17.36.31.64.47.91.32.54.6,1.11,1.22,2.2,1.24,2.19,1.62,1.95,3.05,3.97.38.49.65.87.9,1.16.26.29.46.52.67.75.4.47.85.9,1.69,1.8.88.86,1.34,1.28,1.83,1.66.48.38.96.78,1.93,1.53,1.97,1.48,1.85,1.65,3.98,2.93,1.07.63,1.63.9,2.17,1.2.27.15.55.28.9.45.35.16.77.38,1.35.6.58.23,1.01.4,1.37.55.36.14.65.24.95.35.58.23,1.17.41,2.37.75.61.14,1.05.27,1.43.39.37.12.67.21.97.31s.6.21.98.3.85.17,1.47.25c1.25.12,1.87.21,2.5.26.31.03.63.06,1.02.08s.87.02,1.5.01c.63,0,1.1-.1,1.49-.19.39-.1.69-.21.99-.35.6-.27,1.19-.5,2.41-.7,2.42-.44,2.53.02,4.94-.67.6-.18,1.04-.35,1.39-.53.35-.17.62-.34.89-.5s.53-.35.87-.53c.34-.2.76-.38,1.31-.66.56-.27.98-.45,1.32-.63s.62-.32.89-.46c.55-.27,1.08-.6,2.13-1.24,1.03-.69,1.56-1,2.07-1.35.26-.17.52-.34.84-.56.31-.23.67-.53,1.15-.92.32-.27.53-.55.66-.83.45-.26.87-.59,1.25-.94.02-.02.05-.04.08-.06l.12-.12c.14-.14.25-.29.34-.46.14-.1.29-.22.45-.38.82-.93,1.31-1.32,1.76-1.76.46-.43.93-.86,1.65-1.89,1.41-2.08,1.25-2.18,2.43-4.37.58-1.1.75-1.71.96-2.3.11-.29.18-.6.31-.97.11-.37.29-.8.48-1.39.4-1.17.61-1.76.81-2.34.21-.58.38-1.18.65-2.4.11-.61.24-1.06.37-1.44.12-.37.24-.67.37-.97.12-.3.26-.6.36-.99s.18-.86.23-1.49c.06-1.26.08-1.9.07-2.53v.03Z" fill="#cd4929"/>
  <path d="M74.18,37.2c0-.32,0-.63-.01-1.03-.02-.39-.05-.87-.08-1.5-.04-.63-.11-1.1-.15-1.49-.04-.39-.09-.71-.14-1.02-.11-.62-.2-1.25-.46-2.49-.12-.62-.27-1.07-.4-1.45-.14-.37-.25-.67-.39-.95-.14-.29-.28-.57-.43-.94-.08-.18-.15-.38-.24-.61-.09-.23-.19-.48-.3-.78-.11-.29-.21-.55-.3-.78-.1-.22-.2-.42-.29-.59-.18-.35-.34-.62-.51-.89-.16-.27-.35-.53-.54-.86-.2-.33-.41-.75-.71-1.29-.58-1.1-.76-1.71-.94-2.33-.17-.63-.39-1.24-1.1-2.29-.76-1.01-1.21-1.46-1.69-1.88-.24-.21-.47-.42-.75-.7-.29-.27-.62-.6-1.05-1.05-1.75-1.77-1.68-1.86-3.6-3.46-.97-.79-1.54-1.08-2.08-1.4-.27-.16-.55-.3-.89-.49-.34-.19-.73-.44-1.27-.75s-.96-.53-1.31-.69c-.36-.15-.66-.25-.96-.35-.59-.21-1.19-.38-2.32-.89-1.14-.45-1.64-.89-2.16-1.3-.26-.21-.52-.41-.87-.62-.35-.19-.79-.37-1.4-.55-.61-.17-1.08-.25-1.46-.33-.39-.08-.7-.12-1.01-.15-.63-.07-1.25-.16-2.5-.31-.61-.08-1.09-.09-1.48-.09s-.71,0-1.02.03c-.31.03-.63.06-1.02.07-.39,0-.86.03-1.48.04-2.49.07-2.48.24-4.94.55-1.23.17-1.86.15-2.52.1-.33-.03-.65-.03-1.05,0-.4.04-.87.09-1.48.28-.6.19-1.06.32-1.43.45-.37.14-.67.25-.96.35-.6.21-1.18.46-2.34.96-1.14.54-1.72.81-2.27,1.12-.28.15-.56.3-.91.49-.34.2-.74.45-1.29.78-.54.33-.92.61-1.25.82-.33.22-.59.39-.84.59-.5.38-1.03.73-1.99,1.55-.24.2-.45.39-.62.57s-.31.35-.42.52c-.24.32-.4.61-.56.9-.16.28-.3.59-.52.91-.21.34-.52.68-.92,1.15-.41.46-.74.79-1.03,1.05-.28.27-.52.48-.76.68-.24.21-.49.41-.75.7-.26.29-.56.65-.93,1.17-.69,1.05-.98,1.61-1.23,2.19-.13.29-.26.57-.43.92-.17.35-.36.78-.65,1.33-.29.55-.46.99-.63,1.34-.15.36-.29.64-.39.93-.11.29-.22.58-.36.95-.15.36-.3.8-.49,1.39-.75,2.37-.94,2.32-1.45,4.77-.24,1.23-.25,1.86-.3,2.48-.03.31-.03.62-.05,1.01-.01.39-.06.85-.08,1.47-.02.62-.06,1.09-.09,1.47-.02.39-.04.7-.07,1.01-.06.62-.08,1.25,0,2.5.06.62.11,1.09.14,1.48.04.39.08.7.11,1.01.04.31.06.63.13,1.01.07.39.16.85.28,1.46.3,1.22.41,1.84.57,2.45.07.31.15.61.25.99.11.38.27.82.48,1.42.21.6.43,1.02.59,1.38.17.36.31.64.47.91.32.54.6,1.11,1.22,2.2,1.24,2.19,1.62,1.95,3.05,3.97.38.49.65.87.9,1.16.26.29.46.52.67.75.4.47.85.9,1.69,1.8.88.86,1.34,1.28,1.83,1.66.48.38.96.78,1.93,1.53,1.97,1.48,1.85,1.65,3.98,2.93,1.07.63,1.63.9,2.17,1.2.27.15.55.28.9.45.35.16.77.38,1.35.6.58.23,1.01.4,1.37.55.36.14.65.24.95.35.58.23,1.17.41,2.37.75.61.14,1.05.27,1.43.39.37.12.67.21.97.31.3.1.6.21.98.3s.85.17,1.47.25c1.25.12,1.87.21,2.5.26.31.03.63.06,1.02.08.39.02.87.02,1.5.01.63,0,1.1-.1,1.49-.19.39-.1.69-.21.99-.35.6-.27,1.19-.5,2.41-.7,2.42-.44,2.53.02,4.94-.67.6-.18,1.04-.35,1.39-.53.35-.17.62-.34.89-.5.27-.16.53-.35.87-.53.34-.2.76-.38,1.31-.66.56-.27.98-.45,1.32-.63.34-.18.62-.32.89-.46.55-.27,1.08-.6,2.13-1.24,1.03-.69,1.56-1,2.07-1.35.26-.17.52-.34.84-.56.31-.23.67-.53,1.15-.92.32-.27.53-.55.66-.83.45-.26.87-.59,1.25-.94.02-.02.05-.04.08-.06v.02l.12-.12c.14-.14.25-.29.34-.46.14-.1.29-.22.45-.38.82-.93,1.31-1.32,1.76-1.76.46-.43.93-.86,1.65-1.89,1.41-2.08,1.25-2.18,2.43-4.37.58-1.1.75-1.71.96-2.3.11-.29.18-.6.31-.97.11-.37.29-.8.48-1.39.4-1.17.61-1.76.81-2.34.21-.58.38-1.18.65-2.4.11-.61.24-1.06.37-1.44.12-.37.24-.67.37-.97.12-.3.26-.6.36-.99.1-.39.18-.86.23-1.49.06-1.26.08-1.9.07-2.53ZM65.62,41.68c0,.17-.03.31-.11.4-.06.21-.09.43-.1.66-.23.39-.38.75-.47,1.07-.14.3-.25.59-.33.85-.18.64-.33,1.25-.44,1.85-.07.67-.22,1.28-.44,1.85l.06.1c-.22.57-.44.93-.65,1.1-.2.29-.49.43-.89.43l-1.43-.4c-.66-.3-1.54-.64-2.63-1-.74-.21-1.56-.47-2.44-.78l-2.86-.81c-.99-.34-1.94-.63-2.84-.89-.95-.27-1.76-.47-2.41-.59-.76-.16-1.41-.37-1.96-.64-.43-.16-.83-.3-1.22-.42.02.18.04.35.05.51h-.01c.31,1.24.59,2.45.83,3.63.2,1.26.43,2.48.67,3.66.2.57.41,1.15.61,1.72.2.57.41,1.15.61,1.72s.41,1.17.63,1.8c.19.52.33,1.08.43,1.68.02.28.1.6.24.96l.26,1.04c.03.33.06.69.1,1.08.08.32.09.57.02.76-.13.37-.22.6-.26.66-.13.15-.25.23-.36.26-.09.08-.26.09-.5.04-.09.08-.27.15-.54.22-.41.16-.88.34-1.4.53l-1.56.57c-.52.19-1.05.35-1.58.49-.53.14-1.03.18-1.5.12-.56-.06-1.11-.18-1.66-.37-.5-.73-.58-1.92-.73-2.73-.21-1.2-.45-2.36-.77-3.53-.87-3.2-1.77-6.39-2.58-9.6-.24-.95-.46-1.91-.68-2.88-.02.01-.03.02-.05.04-.43.42-.89.9-1.36,1.44-.36.5-.83,1-1.42,1.5-.51.42-1.12.98-1.83,1.67-.67.65-1.36,1.36-2.07,2.13l-2.13,2.07c-.63.69-1.22,1.31-1.78,1.84-.79.85-1.4,1.56-1.84,2.14l-1.07,1.04c-.35.19-.68.2-.99.04-.27-.04-.64-.26-1.1-.66v-.12c-.46-.4-.88-.87-1.26-1.42-.38-.47-.8-.95-1.27-1.42-.19-.2-.42-.4-.69-.59-.23-.24-.54-.48-.92-.71-.11-.2-.25-.37-.4-.53-.12-.04-.21-.14-.29-.3-.34-.43-.53-.83-.57-1.18-.11-.2-.07-.47.13-.82.2-.27.57-.64,1.12-1.09.47-.54,1.11-1.23,1.9-2.08.43-.5.97-1.06,1.6-1.67l3.85-3.74c.67-.58,1.26-1.07,1.77-1.49.36-.42.81-.9,1.36-1.44l1.78-1.73c.09-.09.2-.18.29-.28-.92-.23-1.83-.47-2.73-.72-3.19-.9-6.35-1.89-9.53-2.84-1.17-.35-2.32-.62-3.51-.86-.81-.17-2-.28-2.71-.8-.17-.55-.28-1.11-.33-1.67-.04-.47.02-.97.17-1.5.15-.53.33-1.05.53-1.57.2-.52.41-1.03.61-1.54.2-.52.39-.98.56-1.39.08-.27.15-.44.24-.53-.05-.24-.03-.41.06-.5.03-.11.12-.22.27-.35.07-.04.29-.12.67-.24.19-.06.44-.05.76.04.39.05.75.1,1.08.13l1.03.29c.36.16.67.25.95.27.6.11,1.15.27,1.67.47.62.23,1.21.46,1.78.68.57.22,1.13.43,1.7.65.57.22,1.13.43,1.7.65,1.18.28,2.39.53,3.64.77,1.18.28,2.38.59,3.6.93.16.02.34.04.51.06-.11-.39-.24-.8-.38-1.23-.25-.56-.45-1.22-.59-1.98-.11-.65-.28-1.46-.53-2.42-.23-.91-.5-1.86-.81-2.86l-.73-2.88c-.28-.89-.52-1.71-.71-2.46-.34-1.11-.65-1.99-.93-2.66l-.37-1.44c.01-.4.16-.69.46-.88.17-.21.55-.42,1.12-.62l.1.06c.57-.2,1.19-.33,1.86-.39.6-.1,1.22-.22,1.86-.39.27-.07.55-.17.86-.3.32-.08.68-.23,1.08-.44.23,0,.45-.03.66-.08.09-.08.23-.11.4-.1.55-.08.98-.05,1.3.1.23,0,.44.17.64.52.13.31.26.81.39,1.52.23.68.51,1.57.85,2.68.22.63.43,1.37.65,2.22l1.32,5.2c.16.87.3,1.63.41,2.28.19.52.38,1.15.57,1.9l.55,2.15c.88-.85,1.75-1.67,2.63-2.44.98-.81,1.93-1.61,2.84-2.41.4-.46.79-.92,1.19-1.39.4-.46.79-.92,1.19-1.39.4-.46.81-.94,1.25-1.44.36-.42.77-.83,1.24-1.21.24-.15.47-.38.71-.69l.77-.75c.27-.19.57-.4.88-.63.24-.23.45-.36.65-.4.39-.07.62-.11.7-.11.19.04.33.1.41.18.12.04.21.18.29.41.12.04.27.16.46.36.35.28.73.59,1.15.95.42.36.85.71,1.27,1.07.42.36.83.73,1.21,1.13.38.4.67.81.86,1.24.23.51.4,1.05.51,1.62-.38.8-1.37,1.46-2,2-.93.78-1.82,1.57-2.68,2.43-2.34,2.35-4.65,4.72-7.03,7.03-.54.52-1.08,1.04-1.64,1.55l2.22.63c.74.21,1.37.42,1.88.62.65.13,1.41.28,2.27.47l5.17,1.46c.85.24,1.58.48,2.2.71,1.1.37,1.98.67,2.66.92.7.14,1.21.28,1.51.43.34.21.51.43.5.66.14.32.16.76.06,1.3Z" fill="#ea6c3d"/>
</svg>