<?xml version="1.0" encoding="UTF-8"?>
<svg xmlns="http://www.w3.org/2000/svg" width="512" height="512" viewBox="0 0 512 512">
  <g id="uuid-f668a778-fac8-45ad-8908-6b4a422fdd31" data-name="bg">
    <rect y="0" width="512" height="512" fill="#ffa300"/>
  </g>
  <g id="uuid-d856732a-49ac-4361-8bfe-ef19b9168545" data-name="icon">
    <path d="M455.99,254.37c0-1.74,0-3.43-.05-5.62-.11-2.13-.27-4.74-.44-8.18-.22-3.43-.6-6-.82-8.12s-.49-3.87-.76-5.56c-.6-3.38-1.09-6.82-2.51-13.58-.65-3.38-1.47-5.83-2.18-7.91-.76-2.02-1.36-3.65-2.13-5.18-.76-1.58-1.53-3.11-2.34-5.13-.44-.98-.82-2.07-1.31-3.33s-1.04-2.62-1.64-4.25c-.6-1.58-1.14-3-1.64-4.25-.55-1.2-1.09-2.29-1.58-3.22-.98-1.91-1.85-3.38-2.78-4.85-.87-1.47-1.91-2.89-2.94-4.69-1.09-1.8-2.24-4.09-3.87-7.03-3.16-6-4.14-9.32-5.13-12.7-.93-3.43-2.13-6.76-6-12.49-4.14-5.51-6.6-7.96-9.21-10.25-1.31-1.14-2.56-2.29-4.09-3.82-1.58-1.47-3.38-3.27-5.72-5.72-9.54-9.65-9.16-10.14-19.63-18.86-5.29-4.31-8.4-5.89-11.34-7.63-1.47-.87-3-1.64-4.85-2.67s-3.98-2.4-6.92-4.09-5.23-2.89-7.14-3.76c-1.96-.82-3.6-1.36-5.23-1.91-3.22-1.14-6.49-2.07-12.65-4.85-6.22-2.45-8.94-4.85-11.78-7.09-1.42-1.14-2.84-2.24-4.74-3.38-1.91-1.04-4.31-2.02-7.63-3-3.33-.93-5.89-1.36-7.96-1.8-2.13-.44-3.82-.65-5.51-.82-3.43-.38-6.82-.87-13.63-1.69-3.33-.44-5.94-.49-8.07-.49s-3.87,0-5.56.16-3.43.33-5.56.38c-2.13,0-4.69.16-8.07.22-13.58.38-13.52,1.31-26.93,3-6.71.93-10.14.82-13.74.55-1.8-.16-3.54-.16-5.72,0-2.18.22-4.74.49-8.07,1.53-3.27,1.04-5.78,1.74-7.8,2.45-2.02.76-3.65,1.36-5.23,1.91-3.27,1.14-6.43,2.51-12.76,5.23-6.22,2.94-9.38,4.42-12.38,6.11-1.53.82-3.05,1.64-4.96,2.67-1.85,1.09-4.03,2.45-7.03,4.25-2.94,1.8-5.02,3.33-6.82,4.47-1.8,1.2-3.22,2.13-4.58,3.16-2.73,2.07-5.62,3.98-10.85,8.45-1.31,1.09-2.45,2.13-3.38,3.11s-1.69,1.91-2.29,2.84c-1.31,1.74-2.18,3.33-3.05,4.91-.87,1.53-1.64,3.22-2.84,4.96-1.14,1.85-2.84,3.71-5.02,6.27-2.24,2.51-4.03,4.31-5.62,5.72-1.53,1.47-2.84,2.62-4.14,3.71-1.31,1.14-2.67,2.24-4.09,3.82s-3.05,3.54-5.07,6.38c-3.76,5.72-5.34,8.78-6.71,11.94-.71,1.58-1.42,3.11-2.34,5.02s-1.96,4.25-3.54,7.25-2.51,5.4-3.43,7.31c-.82,1.96-1.58,3.49-2.13,5.07-.6,1.58-1.2,3.16-1.96,5.18-.82,1.96-1.64,4.36-2.67,7.58-4.09,12.92-5.13,12.65-7.91,26.01-1.31,6.71-1.36,10.14-1.64,13.52-.16,1.69-.16,3.38-.27,5.51-.05,2.13-.33,4.63-.44,8.01s-.33,5.94-.49,8.01c-.11,2.13-.22,3.82-.38,5.51-.33,3.38-.44,6.82,0,13.63.33,3.38.6,5.94.76,8.07.22,2.13.44,3.82.6,5.51.22,1.69.33,3.43.71,5.51.38,2.13.87,4.63,1.53,7.96,1.64,6.65,2.24,10.03,3.11,13.36.38,1.69.82,3.33,1.36,5.4.6,2.07,1.47,4.47,2.62,7.74,1.14,3.27,2.34,5.56,3.22,7.52.93,1.96,1.69,3.49,2.56,4.96,1.74,2.94,3.27,6.05,6.65,11.99,6.76,11.94,8.83,10.63,16.63,21.65,2.07,2.67,3.54,4.74,4.91,6.32,1.42,1.58,2.51,2.84,3.65,4.09,2.18,2.56,4.63,4.91,9.21,9.81,4.8,4.69,7.31,6.98,9.98,9.05,2.62,2.07,5.23,4.25,10.52,8.34,10.74,8.07,10.09,9,21.7,15.97,5.83,3.43,8.89,4.91,11.83,6.54,1.47.82,3,1.53,4.91,2.45,1.91.87,4.2,2.07,7.36,3.27,3.16,1.25,5.51,2.18,7.47,3,1.96.76,3.54,1.31,5.18,1.91,3.16,1.25,6.38,2.24,12.92,4.09,3.33.76,5.72,1.47,7.8,2.13,2.02.65,3.65,1.14,5.29,1.69s3.27,1.14,5.34,1.64,4.63.93,8.01,1.36c6.82.65,10.2,1.14,13.63,1.42,1.69.16,3.43.33,5.56.44s4.74.11,8.18.05c3.43,0,6-.55,8.12-1.04,2.13-.55,3.76-1.14,5.4-1.91,3.27-1.47,6.49-2.73,13.14-3.82,13.19-2.4,13.79.11,26.93-3.65,3.27-.98,5.67-1.91,7.58-2.89,1.91-.93,3.38-1.85,4.85-2.73s2.89-1.91,4.74-2.89c1.85-1.09,4.14-2.07,7.14-3.6,3.05-1.47,5.34-2.45,7.2-3.43s3.38-1.74,4.85-2.51c3-1.47,5.89-3.27,11.61-6.76,5.62-3.76,8.51-5.45,11.29-7.36,1.42-.93,2.84-1.85,4.58-3.05,1.69-1.25,3.65-2.89,6.27-5.02,1.74-1.47,2.89-3,3.6-4.53,2.45-1.42,4.74-3.22,6.82-5.13.11-.11.27-.22.44-.33l.65-.65c.76-.76,1.36-1.58,1.85-2.51.76-.55,1.58-1.2,2.45-2.07,4.47-5.07,7.14-7.2,9.6-9.6,2.51-2.34,5.07-4.69,9-10.3,7.69-11.34,6.82-11.89,13.25-23.83,3.16-6,4.09-9.32,5.23-12.54.6-1.58.98-3.27,1.69-5.29.6-2.02,1.58-4.36,2.62-7.58,2.18-6.38,3.33-9.6,4.42-12.76,1.14-3.16,2.07-6.43,3.54-13.09.6-3.33,1.31-5.78,2.02-7.85.65-2.02,1.31-3.65,2.02-5.29.65-1.64,1.42-3.27,1.96-5.4s.98-4.69,1.25-8.12c.33-6.87.44-10.36.38-13.79v.16Z" fill="#cd4929"/>
    <path d="M455.99,254.35c0-1.74,0-3.43-.05-5.62-.11-2.13-.27-4.74-.44-8.18-.22-3.43-.6-6-.82-8.12-.22-2.13-.49-3.87-.76-5.56-.6-3.38-1.09-6.82-2.51-13.58-.65-3.38-1.47-5.83-2.18-7.91-.76-2.02-1.36-3.65-2.13-5.18-.76-1.58-1.53-3.11-2.34-5.13-.44-.98-.82-2.07-1.31-3.33-.49-1.25-1.04-2.62-1.64-4.25-.6-1.58-1.15-3-1.64-4.25-.55-1.2-1.09-2.29-1.58-3.22-.98-1.91-1.85-3.38-2.78-4.85-.87-1.47-1.91-2.89-2.94-4.69-1.09-1.8-2.24-4.09-3.87-7.03-3.16-6-4.14-9.32-5.13-12.7-.93-3.43-2.13-6.76-6-12.49-4.14-5.51-6.6-7.96-9.21-10.25-1.31-1.15-2.56-2.29-4.09-3.82-1.58-1.47-3.38-3.27-5.72-5.72-9.54-9.65-9.16-10.14-19.63-18.86-5.29-4.31-8.4-5.89-11.34-7.63-1.47-.87-3-1.64-4.85-2.67-1.85-1.04-3.98-2.4-6.92-4.09s-5.23-2.89-7.14-3.76c-1.96-.82-3.6-1.36-5.23-1.91-3.22-1.15-6.49-2.07-12.65-4.85-6.22-2.45-8.94-4.85-11.78-7.09-1.42-1.15-2.84-2.24-4.74-3.38-1.91-1.04-4.31-2.02-7.63-3-3.33-.93-5.89-1.36-7.96-1.8-2.13-.44-3.82-.65-5.51-.82-3.43-.38-6.82-.87-13.63-1.69-3.33-.44-5.94-.49-8.07-.49s-3.87,0-5.56.16c-1.69.16-3.43.33-5.56.38-2.13,0-4.69.16-8.07.22-13.58.38-13.52,1.31-26.93,3-6.71.93-10.14.82-13.74.55-1.8-.16-3.54-.16-5.72,0-2.18.22-4.74.49-8.07,1.53-3.27,1.04-5.78,1.74-7.8,2.45-2.02.76-3.65,1.36-5.23,1.91-3.27,1.14-6.43,2.51-12.76,5.23-6.22,2.94-9.38,4.42-12.38,6.11-1.53.82-3.05,1.64-4.96,2.67-1.85,1.09-4.03,2.45-7.03,4.25-2.94,1.8-5.02,3.33-6.82,4.47-1.8,1.2-3.22,2.13-4.58,3.22-2.73,2.07-5.62,3.98-10.85,8.45-1.31,1.09-2.45,2.13-3.38,3.11s-1.69,1.91-2.29,2.83c-1.31,1.74-2.18,3.33-3.05,4.91-.87,1.53-1.64,3.22-2.84,4.96-1.15,1.85-2.84,3.71-5.02,6.27-2.24,2.51-4.03,4.31-5.62,5.72-1.53,1.47-2.83,2.62-4.14,3.71-1.31,1.15-2.67,2.24-4.09,3.82-1.42,1.58-3.05,3.54-5.07,6.38-3.76,5.73-5.34,8.78-6.71,11.94-.71,1.58-1.42,3.11-2.34,5.02-.93,1.91-1.96,4.25-3.54,7.25-1.58,3-2.51,5.4-3.43,7.31-.82,1.96-1.58,3.49-2.13,5.07-.6,1.58-1.2,3.16-1.96,5.18-.82,1.96-1.64,4.36-2.67,7.58-4.09,12.92-5.13,12.65-7.91,26.01-1.31,6.71-1.36,10.14-1.64,13.52-.16,1.69-.16,3.38-.27,5.51-.05,2.13-.33,4.63-.44,8.01-.11,3.38-.33,5.94-.49,8.01-.11,2.13-.22,3.82-.38,5.51-.33,3.38-.44,6.82,0,13.63.33,3.38.6,5.94.76,8.07.22,2.13.44,3.82.6,5.51.22,1.69.33,3.43.71,5.51.38,2.13.87,4.63,1.53,7.96,1.64,6.65,2.24,10.03,3.11,13.36.38,1.69.82,3.33,1.36,5.4.6,2.07,1.47,4.47,2.62,7.74,1.14,3.27,2.34,5.56,3.22,7.52.93,1.96,1.69,3.49,2.56,4.96,1.74,2.94,3.27,6.05,6.65,11.99,6.76,11.94,8.83,10.63,16.63,21.65,2.07,2.67,3.54,4.74,4.91,6.32,1.42,1.58,2.51,2.84,3.65,4.09,2.18,2.56,4.63,4.91,9.21,9.81,4.8,4.69,7.31,6.98,9.98,9.05,2.62,2.07,5.23,4.25,10.52,8.34,10.74,8.07,10.09,9,21.7,15.98,5.83,3.43,8.89,4.91,11.83,6.54,1.47.82,3,1.53,4.91,2.45,1.91.87,4.2,2.07,7.36,3.27,3.16,1.25,5.51,2.18,7.47,3,1.96.76,3.54,1.31,5.18,1.91,3.16,1.25,6.38,2.24,12.92,4.09,3.33.76,5.73,1.47,7.8,2.13,2.02.65,3.65,1.14,5.29,1.69,1.64.55,3.27,1.14,5.34,1.64s4.63.93,8.01,1.36c6.82.65,10.2,1.15,13.63,1.42,1.69.16,3.43.33,5.56.44,2.13.11,4.74.11,8.18.05,3.43,0,6-.55,8.12-1.04,2.13-.55,3.76-1.15,5.4-1.91,3.27-1.47,6.49-2.73,13.14-3.82,13.19-2.4,13.79.11,26.93-3.65,3.27-.98,5.67-1.91,7.58-2.89,1.91-.93,3.38-1.85,4.85-2.73,1.47-.87,2.89-1.91,4.74-2.89,1.85-1.09,4.14-2.07,7.14-3.6,3.05-1.47,5.34-2.45,7.2-3.43,1.85-.98,3.38-1.74,4.85-2.51,3-1.47,5.89-3.27,11.61-6.76,5.62-3.76,8.51-5.45,11.29-7.36,1.42-.93,2.84-1.85,4.58-3.05,1.69-1.25,3.65-2.89,6.27-5.02,1.74-1.47,2.89-3,3.6-4.53,2.45-1.42,4.74-3.22,6.82-5.13.11-.11.27-.22.44-.33v.11l.65-.65c.76-.76,1.36-1.58,1.85-2.51.76-.55,1.58-1.2,2.45-2.07,4.47-5.07,7.14-7.2,9.6-9.6,2.51-2.34,5.07-4.69,9-10.3,7.69-11.34,6.82-11.89,13.25-23.83,3.16-6,4.09-9.32,5.23-12.54.6-1.58.98-3.27,1.69-5.29.6-2.02,1.58-4.36,2.62-7.58,2.18-6.38,3.33-9.6,4.42-12.76,1.14-3.16,2.07-6.43,3.54-13.09.6-3.33,1.31-5.78,2.02-7.85.65-2.02,1.31-3.65,2.02-5.29.65-1.64,1.42-3.27,1.96-5.4.55-2.13.98-4.69,1.25-8.12.33-6.87.44-10.36.38-13.79ZM409.32,278.77c0,.93-.16,1.69-.6,2.18-.33,1.15-.49,2.34-.55,3.6-1.25,2.13-2.07,4.09-2.56,5.83-.76,1.64-1.36,3.22-1.8,4.63-.98,3.49-1.8,6.82-2.4,10.09-.38,3.65-1.2,6.98-2.4,10.09l.33.55c-1.2,3.11-2.4,5.07-3.54,6-1.09,1.58-2.67,2.34-4.85,2.34l-7.8-2.18c-3.6-1.64-8.4-3.49-14.34-5.45-4.03-1.15-8.51-2.56-13.3-4.25l-15.59-4.42c-5.4-1.85-10.58-3.43-15.48-4.85-5.18-1.47-9.6-2.56-13.14-3.22-4.14-.87-7.69-2.02-10.69-3.49-2.34-.87-4.53-1.64-6.65-2.29.11.98.22,1.91.27,2.78l-.05.05c1.69,6.71,3.22,13.3,4.53,19.74,1.09,6.87,2.34,13.52,3.65,19.95,1.09,3.11,2.24,6.27,3.33,9.38,1.09,3.11,2.24,6.27,3.33,9.38,1.09,3.11,2.24,6.38,3.43,9.81,1.04,2.84,1.8,5.89,2.34,9.16.11,1.53.55,3.27,1.31,5.23l1.42,5.67c.16,1.8.33,3.76.55,5.89.44,1.74.49,3.11.11,4.14-.71,2.02-1.2,3.27-1.42,3.6-.71.82-1.36,1.25-1.96,1.42-.49.44-1.42.49-2.73.22-.49.44-1.47.82-2.94,1.2-2.24.87-4.8,1.85-7.63,2.89l-8.51,3.11c-2.83,1.04-5.72,1.91-8.61,2.67-2.89.76-5.62.98-8.18.65-3.05-.33-6.05-.98-9.05-2.02-2.73-3.98-3.16-10.47-3.98-14.88-1.15-6.54-2.45-12.87-4.2-19.25-4.74-17.45-9.65-34.84-14.07-52.34-1.31-5.18-2.51-10.41-3.71-15.7-.11.05-.16.11-.27.22-2.34,2.29-4.85,4.91-7.41,7.85-1.96,2.73-4.53,5.45-7.74,8.18-2.78,2.29-6.11,5.34-9.98,9.11-3.65,3.54-7.41,7.41-11.29,11.61l-11.61,11.29c-3.43,3.76-6.65,7.14-9.71,10.03-4.31,4.63-7.63,8.51-10.03,11.67l-5.83,5.67c-1.91,1.04-3.71,1.09-5.4.22-1.47-.22-3.49-1.42-6-3.6v-.65c-2.51-2.18-4.8-4.74-6.87-7.74-2.07-2.56-4.36-5.18-6.92-7.74-1.04-1.09-2.29-2.18-3.76-3.22-1.25-1.31-2.94-2.62-5.02-3.87-.6-1.09-1.36-2.02-2.18-2.89-.65-.22-1.15-.76-1.58-1.64-1.85-2.34-2.89-4.53-3.11-6.43-.6-1.09-.38-2.56.71-4.47,1.09-1.47,3.11-3.49,6.11-5.94,2.56-2.94,6.05-6.71,10.36-11.34,2.34-2.73,5.29-5.78,8.72-9.11l20.99-20.39c3.65-3.16,6.87-5.83,9.65-8.12,1.96-2.29,4.42-4.91,7.41-7.85l9.71-9.43c.49-.49,1.09-.98,1.58-1.53-5.02-1.25-9.98-2.56-14.88-3.93-17.39-4.91-34.62-10.3-51.96-15.48-6.38-1.91-12.65-3.38-19.14-4.69-4.42-.93-10.9-1.53-14.78-4.36-.93-3-1.53-6.05-1.8-9.11-.22-2.56.11-5.29.93-8.18.82-2.89,1.8-5.72,2.89-8.56,1.09-2.84,2.24-5.62,3.33-8.4,1.09-2.83,2.13-5.34,3.05-7.58.44-1.47.82-2.4,1.31-2.89-.27-1.31-.16-2.24.33-2.73.16-.6.65-1.2,1.47-1.91.38-.22,1.58-.65,3.65-1.31,1.04-.33,2.4-.27,4.14.22,2.13.27,4.09.55,5.89.71l5.62,1.58c1.96.87,3.65,1.36,5.18,1.47,3.27.6,6.27,1.47,9.11,2.56,3.38,1.25,6.6,2.51,9.71,3.71,3.11,1.2,6.16,2.34,9.27,3.54,3.11,1.2,6.16,2.34,9.27,3.54,6.43,1.53,13.03,2.89,19.85,4.2,6.43,1.53,12.98,3.22,19.63,5.07.87.11,1.85.22,2.78.33-.6-2.13-1.31-4.36-2.07-6.71-1.36-3.05-2.45-6.65-3.22-10.8-.6-3.54-1.53-7.96-2.89-13.19-1.25-4.96-2.73-10.14-4.42-15.59l-3.98-15.7c-1.53-4.85-2.83-9.32-3.87-13.41-1.85-6.05-3.54-10.85-5.07-14.5l-2.02-7.85c.05-2.18.87-3.76,2.51-4.8.93-1.14,3-2.29,6.11-3.38l.55.33c3.11-1.09,6.49-1.8,10.14-2.13,3.27-.55,6.65-1.2,10.14-2.13,1.47-.38,3-.93,4.69-1.64,1.74-.44,3.71-1.25,5.89-2.4,1.25,0,2.45-.16,3.6-.44.49-.44,1.25-.6,2.18-.55,3-.44,5.34-.27,7.09.55,1.25,0,2.4.93,3.49,2.84.71,1.69,1.42,4.42,2.13,8.29,1.25,3.71,2.78,8.56,4.63,14.61,1.2,3.43,2.34,7.47,3.54,12.1l7.2,28.35c.87,4.74,1.64,8.89,2.24,12.43,1.04,2.84,2.07,6.27,3.11,10.36l3,11.72c4.8-4.63,9.54-9.11,14.34-13.3,5.34-4.42,10.52-8.78,15.48-13.14,2.18-2.51,4.31-5.02,6.49-7.58,2.18-2.51,4.31-5.02,6.49-7.58,2.18-2.51,4.42-5.13,6.82-7.85,1.96-2.29,4.2-4.53,6.76-6.6,1.31-.82,2.56-2.07,3.87-3.76l4.2-4.09c1.47-1.04,3.11-2.18,4.8-3.43,1.31-1.25,2.45-1.96,3.54-2.18,2.13-.38,3.38-.6,3.82-.6,1.04.22,1.8.55,2.24.98.65.22,1.14.98,1.58,2.24.65.22,1.47.87,2.51,1.96,1.91,1.53,3.98,3.22,6.27,5.18,2.29,1.96,4.63,3.87,6.92,5.83,2.29,1.96,4.53,3.98,6.6,6.16,2.07,2.18,3.65,4.42,4.69,6.76,1.25,2.78,2.18,5.72,2.78,8.83-2.07,4.36-7.47,7.96-10.9,10.9-5.07,4.25-9.92,8.56-14.61,13.25-12.76,12.81-25.35,25.73-38.33,38.33-2.94,2.84-5.89,5.67-8.94,8.45l12.1,3.43c4.03,1.14,7.47,2.29,10.25,3.38,3.54.71,7.69,1.53,12.38,2.56l28.19,7.96c4.63,1.31,8.61,2.62,11.99,3.87,6,2.02,10.8,3.65,14.5,5.02,3.82.76,6.6,1.53,8.23,2.34,1.85,1.14,2.78,2.34,2.73,3.6.76,1.74.87,4.14.33,7.09Z" fill="#ea6c3d"/>
  </g>
</svg>